<svg width="56" height="56" viewBox="0 0 56 56" fill="none" xmlns="http://www.w3.org/2000/svg">
<path fill-rule="evenodd" clip-rule="evenodd" d="M47.25 16.0842L55.3315 20.125L47.25 24.1658V21H43.7045C43.4901 24.395 42.3789 27.6491 40.4443 30.4754L33.4443 40.7067C33.3794 40.8021 33.3229 40.9053 33.2663 41.0086L33.2477 41.0426C33.2325 41.0702 33.2173 41.0977 33.2019 41.125H33.25C34.6973 41.125 35.875 42.3027 35.875 43.75C35.875 44.4246 35.6125 45.0345 35.1925 45.5C35.6116 45.9655 35.875 46.5754 35.875 47.25C35.875 48.6973 34.6973 49.875 33.25 49.875H31.9183C30.8166 52.9979 27.8582 55.125 24.5 55.125C21.1418 55.125 18.1834 52.9979 17.0817 49.875H15.75C14.3027 49.875 13.125 48.6973 13.125 47.25C13.125 46.5754 13.3875 45.9655 13.8075 45.5C13.3884 45.0345 13.125 44.4246 13.125 43.75C13.125 42.3027 14.3027 41.125 15.75 41.125H15.7973C15.7752 41.0859 15.7536 41.0464 15.7321 41.007L15.732 41.0069L15.732 41.0069L15.732 41.0068L15.732 41.0068L15.7319 41.0067C15.6759 40.904 15.6199 40.8015 15.5549 40.7067L8.55488 30.4754C8.2005 29.9574 7.88375 29.4201 7.5845 28.875H6.125C5.642 28.875 5.25 29.2679 5.25 29.75V42.1242C6.75588 42.5154 7.875 43.8742 7.875 45.5C7.875 47.4302 6.30525 49 4.375 49C2.44475 49 0.875 47.4302 0.875 45.5C0.875 43.8742 1.99413 42.5154 3.5 42.1242V29.75C3.5 28.3027 4.67775 27.125 6.125 27.125H6.73838C5.76538 24.8167 5.25 22.337 5.25 19.7934C5.25 9.36163 13.7366 0.875 24.1684 0.875H24.8316C35.0814 0.875 43.4473 9.06938 43.736 19.25H47.25V16.0842ZM4.375 47.25C5.34013 47.25 6.125 46.4651 6.125 45.5C6.125 44.5349 5.34013 43.75 4.375 43.75C3.40987 43.75 2.625 44.5349 2.625 45.5C2.625 46.4651 3.40987 47.25 4.375 47.25ZM24.1684 2.625C14.7017 2.625 7 10.3267 7 19.7934C7 22.3519 7.567 24.843 8.64763 27.125H14.4611C13.0716 25.1388 12.25 22.7272 12.25 20.125C12.25 13.37 17.745 7.875 24.5 7.875C30.9592 7.875 36.2539 12.9036 36.7062 19.25H41.9729C41.6824 10.0363 34.1154 2.625 24.8316 2.625H24.1684ZM29.75 29.204V24.5H26.25V22.75H31.5V27.9291C33.4381 26.1888 34.727 23.7458 34.9554 21H25.375C24.892 21 24.5 21.3929 24.5 21.875V26.25C24.5 27.6973 23.3223 28.875 21.875 28.875H18.7084C20.37 29.9784 22.3598 30.625 24.5 30.625C26.4136 30.625 28.2039 30.1017 29.75 29.204ZM22.75 21.875C22.75 20.4277 23.9277 19.25 25.375 19.25H34.9554C34.9055 18.6506 34.8014 18.067 34.6544 17.5H24.5V15.75H34.0331C32.4861 12.3935 29.2259 9.98987 25.375 9.66962V12.25H28.875V14H23.625V9.66962C20.4837 9.93038 17.7362 11.5789 15.9889 14H22.75V17.5H21V15.75H14.9678C14.469 16.8315 14.1479 18.0093 14.0446 19.25H21V25.375H19.25V21H14.0446C14.0945 21.5994 14.1986 22.183 14.3456 22.75H17.5V24.5H14.9669C15.4105 25.4634 15.9959 26.3454 16.6959 27.125H21.875C22.358 27.125 22.75 26.7321 22.75 26.25V21.875ZM18.9831 49.875C19.9806 51.9785 22.106 53.375 24.5 53.375C26.894 53.375 29.0194 51.9785 30.0177 49.875H18.9831ZM15.75 48.125H33.25C33.733 48.125 34.125 47.7321 34.125 47.25C34.125 46.7679 33.733 46.375 33.25 46.375H15.75C15.267 46.375 14.875 46.7679 14.875 47.25C14.875 47.7321 15.267 48.125 15.75 48.125ZM33.25 44.625C33.733 44.625 34.125 44.2321 34.125 43.75C34.125 43.2679 33.733 42.875 33.25 42.875H15.75C15.267 42.875 14.875 43.2679 14.875 43.75C14.875 44.2321 15.267 44.625 15.75 44.625H33.25ZM32.0005 39.7189L39.0005 29.4875C40.7347 26.9535 41.7428 24.0406 41.9545 21H36.7054C36.2539 27.3464 30.9592 32.375 24.5 32.375C21.1724 32.375 18.1536 31.0362 15.9434 28.875H9.61275C9.65262 28.9385 9.69181 29.0022 9.73098 29.0658C9.8182 29.2076 9.90531 29.3492 9.9995 29.4875L16.9995 39.7189C17.2944 40.1494 17.5298 40.628 17.7371 41.125H31.2629C31.4694 40.628 31.7056 40.1494 32.0005 39.7189ZM51.4185 20.125L49 18.9158V21.3342L51.4185 20.125ZM11.3041 15.1725C10.7712 16.6513 10.5 18.2061 10.5 19.7934C10.5 20.4505 10.5472 21.1094 10.64 21.7499L8.90837 22.0001C8.80337 21.2774 8.75 20.5345 8.75 19.7934C8.75 18.0023 9.05625 16.2479 9.65825 14.5784L11.3041 15.1725ZM39.9307 22.9276L38.2166 22.5724C38.1002 23.1332 37.9488 23.6862 37.7668 24.2156L39.4232 24.7835C39.628 24.185 39.7986 23.5602 39.9307 22.9276ZM36.112 27.5109L32.5271 32.7504L33.9709 33.7383L37.5557 28.4997C37.9617 27.9073 38.3284 27.2817 38.6469 26.6394L37.0797 25.8615C36.798 26.4312 36.4725 26.9859 36.112 27.5109ZM9.29132 23.8552C9.46195 24.4826 9.67632 25.1073 9.9292 25.7111L11.5444 25.0382C11.3213 24.5027 11.1314 23.9497 10.9801 23.3941L9.29132 23.8552ZM26.25 26.25H28V28H26.25V26.25ZM25.375 37.625V35.875H23.625V37.625H25.375ZM28.875 35.875V37.625H27.125V35.875H28.875ZM32.375 37.625V35.875H30.625V37.625H32.375ZM20.125 35.875H21.875V37.625H20.125V35.875ZM18.375 35.875H16.625V37.625H18.375V35.875Z" fill="url(#paint0_linear)"/>
<defs>
<linearGradient id="paint0_linear" x1="55.125" y1="0.875001" x2="0.875005" y2="55.125" gradientUnits="userSpaceOnUse">
<stop stop-color="#F66C12"/>
<stop offset="1" stop-color="#FBFD2C"/>
</linearGradient>
</defs>
</svg>
