<svg width="56" height="56" viewBox="0 0 56 56" fill="none" xmlns="http://www.w3.org/2000/svg">
<path fill-rule="evenodd" clip-rule="evenodd" d="M54.9063 0H37.5299C37.0875 0 36.6887 0.266547 36.5194 0.675172C36.3502 1.08391 36.4438 1.55433 36.7565 1.86714L40.8493 5.95995L27.074 19.7353L14.3517 7.01302C13.9245 6.58602 13.2321 6.58602 12.8048 7.01302L0.323262 19.4946C-0.103848 19.9217 -0.103848 20.6142 0.323262 21.0415C0.536871 21.255 0.816762 21.3618 1.09665 21.3618C1.37654 21.3618 1.65643 21.255 1.87004 21.0415L13.5783 9.3333L28.8152 24.5702C29.0288 24.7837 29.3087 24.8906 29.5886 24.8906C29.8685 24.8906 30.1484 24.7837 30.362 24.5702C30.7891 24.1431 30.7891 23.4505 30.362 23.0233L28.6209 21.2822L42.3961 7.50684L48.5035 13.6142L37.4027 24.7151C36.9756 25.1422 36.9756 25.8348 37.4027 26.262C37.6163 26.4755 37.8962 26.5824 38.1761 26.5824C38.456 26.5824 38.7359 26.4755 38.9495 26.262L50.0503 15.1611L54.1328 19.2437C54.342 19.4529 54.6218 19.564 54.9064 19.564C55.0473 19.564 55.1895 19.5368 55.3248 19.4808C55.7334 19.3115 55.9999 18.9127 55.9999 18.4703V1.09375C56.0001 0.489781 55.5103 0 54.9063 0ZM53.8126 15.8296L40.1704 2.1875H53.8126V15.8296ZM36.2423 27.4225C36.039 27.218 35.7568 27.102 35.4691 27.102C35.1815 27.102 34.8993 27.218 34.6958 27.4225C34.4913 27.6259 34.3754 27.9081 34.3754 28.1958C34.3754 28.4834 34.4913 28.7656 34.6958 28.969C34.8993 29.1724 35.1815 29.2895 35.4691 29.2895C35.7568 29.2895 36.039 29.1725 36.2423 28.969C36.4457 28.7656 36.5629 28.4834 36.5629 28.1958C36.5629 27.9081 36.4458 27.6259 36.2423 27.4225ZM15.1246 23.0949L21.053 29.0231C21.4801 29.4503 21.4801 30.1429 21.053 30.57C20.8394 30.7835 20.5595 30.8904 20.2796 30.8904C19.9997 30.8904 19.7198 30.7835 19.5062 30.57L13.5778 24.6418L1.86925 36.3504C1.65564 36.5639 1.37575 36.6707 1.09586 36.6707C0.815968 36.6707 0.536078 36.5639 0.322468 36.3504C-0.104641 35.9232 -0.104641 35.2306 0.322468 34.8035L15.343 19.7829C15.7704 19.3559 16.4627 19.3559 16.8899 19.7829C17.317 20.21 17.317 20.9026 16.8898 21.3297L15.1246 23.0949ZM28.0511 40.1299L28 40.1298C27.396 40.1298 26.9062 40.6196 26.9062 41.2236C26.9062 41.8276 27.396 42.3173 28 42.3173L28.0349 42.3174H28.0432C28.6433 42.3174 29.1323 41.833 29.1367 41.2318C29.1412 40.6278 28.6552 40.1344 28.0511 40.1299ZM52.9878 53.8125H54.9062C55.5102 53.8125 56 54.3023 56 54.9062C56 55.5102 55.5102 56 54.9062 56H1.09375C0.489781 56 0 55.5102 0 54.9062C0 54.3023 0.489781 53.8125 1.09375 53.8125H3.0123V48.9111C3.0123 48.4088 3.35431 47.9711 3.84169 47.8498L8.92533 46.5832L10.7476 42.1859L8.04891 37.6965C7.79012 37.266 7.85772 36.7147 8.21286 36.3595L12.4515 32.1207C12.8067 31.7656 13.358 31.6979 13.7885 31.9567L18.2781 34.6555L22.6753 32.8332L23.9419 27.7495C24.0632 27.2622 24.5009 26.9201 25.0031 26.9201H30.9968C31.499 26.9201 31.9367 27.2622 32.058 27.7495L33.3246 32.8332L37.7218 34.6555L42.2114 31.9567C42.6418 31.6981 43.1932 31.7656 43.5484 32.1207L47.7871 36.3594C48.1423 36.7146 48.2099 37.2659 47.9511 37.6964L45.2524 42.1859L47.0748 46.5832L52.1584 47.8498C52.6458 47.9711 52.9878 48.4088 52.9878 48.9111V53.8125ZM39.622 53.8125H50.8001V49.7658L46.0108 48.5727C45.6742 48.4888 45.3975 48.2504 45.2647 47.9301L43.0202 42.5138C42.8875 42.1935 42.9145 41.829 43.0933 41.5317L45.6358 37.302L42.6058 34.272L38.3761 36.8145C38.0789 36.9935 37.7142 37.0205 37.3939 36.8876L31.9778 34.6431C31.6574 34.5103 31.419 34.2336 31.3352 33.8971L30.142 29.1077H25.8578L24.6646 33.8971C24.5808 34.2336 24.3424 34.5103 24.022 34.6431L18.6059 36.8876C18.2857 37.0205 17.921 36.9934 17.6237 36.8145L13.394 34.272L10.3639 37.302L12.9065 41.5317C13.0853 41.8289 13.1123 42.1934 12.9795 42.5138L10.735 47.9301C10.6023 48.2504 10.3255 48.4888 9.989 48.5727L5.19969 49.7658V53.8124H16.3773C15.7698 50.0968 16.9707 46.2799 19.6712 43.5794C20.8671 42.3835 22.2703 41.4771 23.8416 40.8852C24.4068 40.6726 25.0377 40.9581 25.2506 41.5233C25.4635 42.0886 25.1779 42.7196 24.6125 42.9324C23.3345 43.4139 22.1924 44.152 21.2181 45.1263C18.9335 47.4108 17.9669 50.6768 18.6004 53.8124H37.3987C38.0323 50.6769 37.0658 47.4109 34.7812 45.1263C33.8165 44.1614 32.6865 43.4279 31.4231 42.9462C30.8587 42.7309 30.5756 42.099 30.7908 41.5346C31.0061 40.9701 31.638 40.6871 32.2024 40.9023C33.7556 41.4946 35.1438 42.3953 36.328 43.5795C39.0286 46.2802 40.2294 50.0971 39.622 53.8125Z" fill="url(#paint0_linear)"/>
<defs>
<linearGradient id="paint0_linear" x1="61.6875" y1="-5.37721e-07" x2="2.55997e-06" y2="56" gradientUnits="userSpaceOnUse">
<stop offset="0.143937" stop-color="#F66C12"/>
<stop offset="1" stop-color="#FBFD2C"/>
</linearGradient>
</defs>
</svg>
