<svg width="56" height="56" viewBox="0 0 56 56" fill="none" xmlns="http://www.w3.org/2000/svg">
<path fill-rule="evenodd" clip-rule="evenodd" d="M54.1899 18.2205L55.6486 20.7471C55.9977 21.3518 56.0905 22.0561 55.9097 22.7307C55.7289 23.4053 55.2962 23.969 54.6915 24.3182L50.8342 26.5451C50.4236 26.7821 49.9747 26.8948 49.5315 26.8948C49.4268 26.8948 49.3226 26.8878 49.2191 26.8754L44.5595 31.535L47.1123 34.0877C48.6463 35.6219 48.6463 38.118 47.1123 39.6522C46.3692 40.3955 45.3809 40.8048 44.33 40.8048C43.9018 40.8048 43.4844 40.7357 43.0894 40.6049C42.9368 41.353 42.5693 42.0406 42.0171 42.5929C41.274 43.3361 40.2858 43.7453 39.2349 43.7453C38.4608 43.7453 37.7212 43.5226 37.088 43.1087C36.9014 43.7114 36.5704 44.2639 36.1115 44.7228C35.3445 45.4898 34.3367 45.8733 33.3293 45.8734C32.5076 45.8735 31.6862 45.6183 30.9949 45.1082C30.81 45.6839 30.4906 46.2255 30.0344 46.6817L28.4785 48.2375C27.7355 48.9807 26.7473 49.39 25.6963 49.39C24.6454 49.39 23.6573 48.9806 22.9141 48.2375C22.171 47.4945 21.7617 46.5063 21.7617 45.4553C21.7617 45.4268 21.7631 45.3986 21.7638 45.3701C21.7538 45.3704 21.7439 45.3707 21.7339 45.371C21.7155 45.3716 21.6971 45.3722 21.6786 45.3722C20.6276 45.3722 19.6395 44.963 18.8964 44.2198C18.1532 43.4767 17.7439 42.4886 17.7439 41.4376C17.7439 41.409 17.7453 41.3808 17.746 41.3524C17.736 41.3526 17.7261 41.3529 17.7161 41.3533C17.6977 41.3539 17.6793 41.3545 17.6608 41.3545C16.6098 41.3545 15.6218 40.9452 14.8786 40.202C14.1354 39.4589 13.7262 38.4709 13.7262 37.4198C13.7262 37.28 13.7339 37.1416 13.7482 37.0044C12.8148 36.9529 11.8963 36.572 11.1847 35.8605C10.4415 35.1174 10.0322 34.1293 10.0322 33.0783C10.0322 32.8198 10.0573 32.5653 10.1056 32.3171L6.94851 29.1599C6.79057 29.1892 6.62991 29.2048 6.46837 29.2048C6.02508 29.2048 5.57633 29.0922 5.16564 28.855L1.30832 26.628C0.703498 26.2789 0.270824 25.7152 0.0901426 25.0406C-0.0905393 24.366 0.00231724 23.6614 0.351431 23.0567L8.11124 9.61636C8.46035 9.01164 9.02416 8.57897 9.69866 8.39828C10.3729 8.2176 11.0777 8.31024 11.6825 8.65946L15.5399 10.8865C16.1709 11.2509 16.5923 11.8406 16.762 12.4959H20.1573C21.1694 12.4959 22.1759 12.6163 23.1583 12.8505L24.2787 11.7301C25.3644 10.6444 26.8078 10.0466 28.343 10.0466H39.278C39.4688 9.44771 39.8743 8.91517 40.4603 8.57678L44.3176 6.34975C45.5663 5.62889 47.1682 6.05839 47.8888 7.30665L49.2682 9.69587C49.5703 10.219 49.391 10.8879 48.8679 11.1899C48.3449 11.4921 47.676 11.3128 47.3739 10.7896L45.9945 8.40036C45.8769 8.19649 45.6151 8.12671 45.4112 8.24418L41.554 10.4711C41.3501 10.5889 41.28 10.8505 41.3977 11.0544L49.1576 24.4946C49.2753 24.6983 49.5367 24.7684 49.7408 24.6509L53.5981 22.4239C53.7313 22.347 53.78 22.2284 53.7971 22.1647C53.8141 22.1009 53.8313 21.974 53.7543 21.8408L52.2956 19.3142C51.9935 18.7911 52.1728 18.1222 52.6959 17.8202C53.2195 17.5182 53.8879 17.6975 54.1899 18.2205ZM2.20309 24.4745C2.22015 24.5384 2.26872 24.6568 2.40193 24.7337L6.25936 26.9607C6.46333 27.0784 6.72473 27.0082 6.84253 26.8044L14.6023 13.3641C14.72 13.1602 14.6498 12.8986 14.446 12.7809L10.5887 10.5539C10.5124 10.5099 10.4381 10.4967 10.3765 10.4967C10.3308 10.4967 10.2921 10.504 10.2649 10.5112C10.2011 10.5283 10.0825 10.5769 10.0057 10.7101L2.24586 24.1505C2.16886 24.2839 2.18603 24.4107 2.20309 24.4745ZM12.7315 31.8426C12.4014 32.1727 12.2197 32.6114 12.2197 33.0782C12.2197 33.5449 12.4014 33.9837 12.7315 34.3136C13.4128 34.9948 14.5213 34.9949 15.2026 34.3136L16.1464 33.3697C16.4765 33.0397 16.6583 32.6009 16.6583 32.1342C16.6583 31.6675 16.4765 31.2288 16.1464 30.8988C15.8059 30.5582 15.3583 30.3878 14.911 30.3878C14.4634 30.3878 14.016 30.5581 13.6754 30.8988L12.7315 31.8426ZM16.4254 38.6553C16.7554 38.9853 17.1941 39.167 17.6609 39.167C18.1276 39.167 18.5664 38.9854 18.8965 38.6553L20.4523 37.0995C20.7824 36.7695 20.9641 36.3307 20.9641 35.864C20.9641 35.3973 20.7824 34.9585 20.4523 34.6285C20.1117 34.288 19.6643 34.1177 19.2167 34.1177C18.7693 34.1177 18.3218 34.288 17.9813 34.6285L16.4254 36.1844C16.0954 36.5143 15.9136 36.9531 15.9136 37.4198C15.9136 37.8865 16.0954 38.3253 16.4254 38.6553ZM20.4432 42.6732C20.7732 43.0031 21.2119 43.1849 21.6787 43.1849C22.1455 43.1849 22.5843 43.0031 22.9142 42.6732L24.4701 41.1173C24.8001 40.7874 24.9819 40.3486 24.9819 39.8819C24.9819 39.4152 24.8001 38.9764 24.4701 38.6464C24.1295 38.3057 23.6819 38.1354 23.2345 38.1354C22.787 38.1354 22.3396 38.3057 21.999 38.6463L20.4432 40.2021C20.1131 40.5322 19.9314 40.971 19.9314 41.4377C19.9314 41.9044 20.1131 42.3432 20.4432 42.6732ZM26.9319 46.691L28.4878 45.1351C29.1691 44.4538 29.1691 43.3452 28.4878 42.6641C28.1472 42.3236 27.6997 42.1532 27.2524 42.1532C26.8048 42.1532 26.3574 42.3235 26.0168 42.6642L24.461 44.22C24.1309 44.5501 23.9491 44.9888 23.9491 45.4556C23.9491 45.9223 24.1309 46.3609 24.461 46.691C24.7909 47.021 25.2296 47.2028 25.6964 47.2028C26.1632 47.2028 26.6019 47.021 26.9319 46.691ZM44.3302 38.6175C44.797 38.6175 45.2357 38.4358 45.5658 38.1057C46.2469 37.4245 46.2469 36.3159 45.5656 35.6348L28.5343 18.6035L25.5817 21.5561C24.8147 22.3233 23.807 22.7067 22.7994 22.7067C21.792 22.7067 20.7843 22.3231 20.0172 21.5561C19.274 20.8129 18.8648 19.8249 18.8648 18.7738C18.8648 17.7229 19.274 16.7347 20.0172 15.9915L21.2674 14.7413C20.8991 14.703 20.5286 14.6833 20.1572 14.6833H16.3664L8.7527 27.8707L11.1814 30.2994L11.1847 30.296L12.1286 29.3521C13.6627 27.8183 16.159 27.818 17.6932 29.3521C18.3925 30.0515 18.796 30.9678 18.8411 31.9492C19.9699 31.8419 21.1365 32.2193 21.999 33.0818C22.7422 33.825 23.1515 34.8131 23.1515 35.8641C23.1515 35.883 23.1509 35.9019 23.1503 35.9207C23.1499 35.9308 23.1496 35.9409 23.1494 35.9511C24.1853 35.9289 25.2282 36.3109 26.0169 37.0996C26.7601 37.8428 27.1693 38.8309 27.1693 39.8819C27.1693 39.9111 27.1679 39.94 27.1673 39.9689C28.1993 39.9467 29.2383 40.3261 30.026 41.1091C30.0289 41.1119 30.032 41.1143 30.0349 41.1171L32.0939 43.1762C32.7753 43.8576 33.8838 43.8574 34.5649 43.1762C34.895 42.8462 35.0768 42.4074 35.0768 41.9407C35.0768 41.474 34.895 41.0352 34.5649 40.7052L25.2027 31.3429C24.7756 30.9158 24.7756 30.2233 25.2027 29.7962C25.6299 29.3692 26.3225 29.3692 26.7496 29.7962L37.9996 41.0462C38.3296 41.3762 38.7683 41.558 39.2351 41.558C39.7019 41.558 40.1406 41.3762 40.4706 41.0462C40.8007 40.7162 40.9824 40.2774 40.9824 39.8107C40.9824 39.344 40.8007 38.9052 40.4706 38.5752L31.1084 29.2129C30.6813 28.7858 30.6813 28.0933 31.1084 27.6662C31.5358 27.2391 32.2281 27.2392 32.6552 27.6662L43.0947 38.1057C43.4248 38.4358 43.8635 38.6175 44.3302 38.6175ZM37.6247 17.0027C37.6247 19.0222 36.6491 20.8811 35.0576 22.033L43.013 29.9885L47.3207 25.6807C47.3161 25.6734 47.3114 25.6661 47.3067 25.6589C47.2919 25.6357 47.2771 25.6126 47.2632 25.5885L39.5531 12.2341H28.343C27.3919 12.2341 26.4978 12.6044 25.8254 13.2768L21.5639 17.5382C21.2339 17.8683 21.0521 18.3071 21.0521 18.7738C21.0521 19.2405 21.2339 19.6793 21.5639 20.0093C22.2452 20.6904 23.3537 20.6906 24.035 20.0093L27.7671 16.2772C28.1943 15.8501 28.8856 15.8613 29.3128 16.2884L33.4786 20.4541C34.6826 19.7345 35.4373 18.4314 35.4373 17.0027C35.4373 16.3986 35.9271 15.9089 36.531 15.9089C37.135 15.9089 37.6247 16.3986 37.6247 17.0027ZM51.5555 15.2788C51.351 15.4822 51.0699 15.5992 50.7822 15.5992C50.4935 15.5992 50.2124 15.4823 50.0089 15.2788C49.8044 15.0742 49.6885 14.7931 49.6885 14.5055C49.6885 14.2167 49.8044 13.9356 50.0089 13.7311C50.2124 13.5277 50.4935 13.4117 50.7822 13.4117C51.0699 13.4117 51.351 13.5277 51.5555 13.7311C51.7589 13.9356 51.876 14.2167 51.876 14.5055C51.876 14.7931 51.7588 15.0742 51.5555 15.2788Z" fill="url(#paint0_linear)"/>
<defs>
<linearGradient id="paint0_linear" x1="55.7876" y1="6" x2="13.7327" y2="60.0709" gradientUnits="userSpaceOnUse">
<stop stop-color="#F66C12"/>
<stop offset="1" stop-color="#FBFD2C"/>
</linearGradient>
</defs>
</svg>
