<svg width="64" height="64" viewBox="0 0 64 64" fill="none" xmlns="http://www.w3.org/2000/svg">
<path fill-rule="evenodd" clip-rule="evenodd" d="M46 62H9C7.67437 61.9985 6.40347 61.4712 5.46611 60.5339C4.52875 59.5965 4.00149 58.3256 4 57V7C4.00149 5.67437 4.52875 4.40347 5.46611 3.46611C6.40347 2.52875 7.67437 2.00149 9 2H39C39.1313 2 39.2614 2.02586 39.3827 2.07611C39.504 2.12636 39.6143 2.20002 39.7071 2.29288L51.7071 14.2929C51.8 14.3857 51.8736 14.496 51.9239 14.6173C51.9741 14.7386 52 14.8687 52 15V35.3526C54.872 36.7147 57.1949 39.0136 58.5868 41.8713C59.9786 44.7289 60.3565 47.9752 59.6583 51.0762C58.9601 54.1771 57.2273 56.9482 54.745 58.9335C52.2627 60.9189 49.1786 62.0003 46 62ZM55.9776 54.6668C57.2962 52.6935 58 50.3734 58 48C57.9964 44.8185 56.731 41.7683 54.4813 39.5187C52.2317 37.269 49.1815 36.0036 46 36C43.6266 36 41.3065 36.7038 39.3332 38.0224C37.3598 39.3409 35.8217 41.2151 34.9134 43.4078C34.0052 45.6005 33.7676 48.0133 34.2306 50.3411C34.6936 52.6689 35.8365 54.8071 37.5147 56.4853C39.1929 58.1635 41.3311 59.3064 43.6589 59.7694C45.9867 60.2324 48.3995 59.9948 50.5922 59.0866C52.7849 58.1783 54.6591 56.6402 55.9776 54.6668ZM48.5859 14L40 5.41412V11C40.0009 11.7954 40.3172 12.5579 40.8797 13.1203C41.4421 13.6827 42.2046 13.9991 43 14H48.5859ZM6.8797 4.8797C6.31729 5.44211 6.00093 6.20463 6 7V57C6.00093 57.7954 6.31729 58.5579 6.8797 59.1203C7.44211 59.6827 8.20463 59.9991 9 60H38.7961C35.8723 58.2458 33.6893 55.4847 32.6569 52.235C31.6245 48.9854 31.8137 45.4706 33.189 42.3506C34.5644 39.2306 37.0312 36.7198 40.1265 35.2897C43.2218 33.8595 46.7326 33.6083 50 34.5832V16H43C41.6744 15.9985 40.4035 15.4712 39.4661 14.5339C38.5288 13.5965 38.0015 12.3256 38 11V4H9C8.20463 4.00093 7.44211 4.31729 6.8797 4.8797ZM20.2929 21.7071C20.1054 21.5196 20 21.2652 20 21C20 20.7348 20.1054 20.4804 20.2929 20.2929C20.4804 20.1054 20.7348 20 21 20H45C45.2652 20 45.5196 20.1054 45.7071 20.2929C45.8946 20.4804 46 20.7348 46 21C46 21.2652 45.8946 21.5196 45.7071 21.7071C45.5196 21.8946 45.2652 22 45 22H21C20.7348 22 20.4804 21.8946 20.2929 21.7071ZM11 28H31C31.2652 28 31.5196 27.8946 31.7071 27.7071C31.8946 27.5196 32 27.2652 32 27C32 26.7348 31.8946 26.4804 31.7071 26.2929C31.5196 26.1054 31.2652 26 31 26H11C10.7348 26 10.4804 26.1054 10.2929 26.2929C10.1054 26.4804 10 26.7348 10 27C10 27.2652 10.1054 27.5196 10.2929 27.7071C10.4804 27.8946 10.7348 28 11 28ZM27 32H35C35.2652 32 35.5196 32.1054 35.7071 32.2929C35.8946 32.4804 36 32.7348 36 33C36 33.2652 35.8946 33.5196 35.7071 33.7071C35.5196 33.8946 35.2652 34 35 34H27C26.7348 34 26.4804 33.8946 26.2929 33.7071C26.1054 33.5196 26 33.2652 26 33C26 32.7348 26.1054 32.4804 26.2929 32.2929C26.4804 32.1054 26.7348 32 27 32ZM11 40H29C29.2652 40 29.5196 39.8946 29.7071 39.7071C29.8946 39.5196 30 39.2652 30 39C30 38.7348 29.8946 38.4804 29.7071 38.2929C29.5196 38.1054 29.2652 38 29 38H11C10.7348 38 10.4804 38.1054 10.2929 38.2929C10.1054 38.4804 10 38.7348 10 39C10 39.2652 10.1054 39.5196 10.2929 39.7071C10.4804 39.8946 10.7348 40 11 40ZM17 22H11C10.7348 22 10.4804 21.8946 10.2929 21.7071C10.1054 21.5196 10 21.2652 10 21C10 20.7348 10.1054 20.4804 10.2929 20.2929C10.4804 20.1054 10.7348 20 11 20H17C17.2652 20 17.5196 20.1054 17.7071 20.2929C17.8946 20.4804 18 20.7348 18 21C18 21.2652 17.8946 21.5196 17.7071 21.7071C17.5196 21.8946 17.2652 22 17 22ZM35 26C34.7348 26 34.4804 26.1054 34.2929 26.2929C34.1054 26.4804 34 26.7348 34 27C34 27.2652 34.1054 27.5196 34.2929 27.7071C34.4804 27.8946 34.7348 28 35 28H45C45.2652 28 45.5196 27.8946 45.7071 27.7071C45.8946 27.5196 46 27.2652 46 27C46 26.7348 45.8946 26.4804 45.7071 26.2929C45.5196 26.1054 45.2652 26 45 26H35ZM23.7071 33.7071C23.5196 33.8946 23.2652 34 23 34H11C10.7348 34 10.4804 33.8946 10.2929 33.7071C10.1054 33.5196 10 33.2652 10 33C10 32.7348 10.1054 32.4804 10.2929 32.2929C10.4804 32.1054 10.7348 32 11 32H23C23.2652 32 23.5196 32.1054 23.7071 32.2929C23.8946 32.4804 24 32.7348 24 33C24 33.2652 23.8946 33.5196 23.7071 33.7071ZM27 50H23C22.7348 50 22.4804 50.1054 22.2929 50.2929C22.1054 50.4804 22 50.7348 22 51C22 51.2652 22.1054 51.5196 22.2929 51.7071C22.4804 51.8946 22.7348 52 23 52H27C27.2652 52 27.5196 51.8946 27.7071 51.7071C27.8946 51.5196 28 51.2652 28 51C28 50.7348 27.8946 50.4804 27.7071 50.2929C27.5196 50.1054 27.2652 50 27 50ZM19 52H11C10.7348 52 10.4804 51.8946 10.2929 51.7071C10.1054 51.5196 10 51.2652 10 51C10 50.7348 10.1054 50.4804 10.2929 50.2929C10.4804 50.1054 10.7348 50 11 50H19C19.2652 50 19.5196 50.1054 19.7071 50.2929C19.8946 50.4804 20 50.7348 20 51C20 51.2652 19.8946 51.5196 19.7071 51.7071C19.5196 51.8946 19.2652 52 19 52ZM11 46H17C17.2652 46 17.5196 45.8946 17.7071 45.7071C17.8946 45.5196 18 45.2652 18 45C18 44.7348 17.8946 44.4804 17.7071 44.2929C17.5196 44.1054 17.2652 44 17 44H11C10.7348 44 10.4804 44.1054 10.2929 44.2929C10.1054 44.4804 10 44.7348 10 45C10 45.2652 10.1054 45.5196 10.2929 45.7071C10.4804 45.8946 10.7348 46 11 46ZM23 16H11C10.7348 16 10.4804 15.8946 10.2929 15.7071C10.1054 15.5196 10 15.2652 10 15C10 14.7348 10.1054 14.4804 10.2929 14.2929C10.4804 14.1054 10.7348 14 11 14H23C23.2652 14 23.5196 14.1054 23.7071 14.2929C23.8946 14.4804 24 14.7348 24 15C24 15.2652 23.8946 15.5196 23.7071 15.7071C23.5196 15.8946 23.2652 16 23 16ZM27 44H21C20.7348 44 20.4804 44.1054 20.2929 44.2929C20.1054 44.4804 20 44.7348 20 45C20 45.2652 20.1054 45.5196 20.2929 45.7071C20.4804 45.8946 20.7348 46 21 46H27C27.2652 46 27.5196 45.8946 27.7071 45.7071C27.8946 45.5196 28 45.2652 28 45C28 44.7348 27.8946 44.4804 27.7071 44.2929C27.5196 44.1054 27.2652 44 27 44ZM40.3827 50.0762C40.5041 50.1264 40.6143 50.2001 40.7072 50.293L43.8448 53.4305L51.1682 42.4453C51.3159 42.2262 51.5445 42.0745 51.8038 42.0234C52.0631 41.9723 52.3321 42.0259 52.552 42.1725C52.7719 42.3191 52.9248 42.5468 52.9773 42.8059C53.0298 43.0649 52.9776 43.3342 52.8322 43.5548L44.8322 55.5548C44.7501 55.6779 44.6417 55.7813 44.5149 55.8574C44.388 55.9336 44.2459 55.9806 44.0987 55.9952C44.0657 55.9985 44.0329 56.0001 44 56.0001C43.8687 56.0001 43.7387 55.9742 43.6173 55.924C43.496 55.8737 43.3858 55.8001 43.2929 55.7072L39.2929 51.7072C39.2 51.6143 39.1264 51.5041 39.0761 51.3828C39.0259 51.2614 39 51.1314 39 51.0001C39 50.8688 39.0259 50.7387 39.0761 50.6174C39.1264 50.4961 39.2 50.3858 39.2929 50.293C39.3858 50.2001 39.496 50.1264 39.6173 50.0762C39.7387 50.0259 39.8687 50.0001 40 50.0001C40.1314 50.0001 40.2614 50.0259 40.3827 50.0762Z" fill="url(#paint0_linear)"/>
<defs>
<linearGradient id="paint0_linear" x1="59.7879" y1="2" x2="-0.0535321" y2="57.6404" gradientUnits="userSpaceOnUse">
<stop stop-color="#319F2D"/>
<stop offset="1" stop-color="#FBFD2C"/>
<stop offset="1" stop-color="#CFE932"/>
</linearGradient>
</defs>
</svg>
