<svg width="64" height="64" viewBox="0 0 64 64" fill="none" xmlns="http://www.w3.org/2000/svg">
<g clip-path="url(#clip0)">
<path fill-rule="evenodd" clip-rule="evenodd" d="M60.836 54.1252L53.2197 40.9333C54.2121 39.8071 54.7892 38.339 54.7893 36.7675C54.7894 35.7515 55.185 34.7962 55.9034 34.0777C57.7123 32.2684 58.2487 29.5718 57.2699 27.208C56.8811 26.2694 56.8811 25.2354 57.2699 24.2967C58.2487 21.9329 57.7123 19.2363 55.9034 17.427C55.185 16.7085 54.7894 15.7533 54.7893 14.7372C54.789 12.1786 53.2615 9.89264 50.8979 8.91329C49.9593 8.52442 49.2282 7.79332 48.8392 6.85471C47.86 4.49102 45.5739 2.96356 43.0153 2.96331C41.9993 2.96318 41.0441 2.56756 40.3256 1.84921C38.5162 0.0402493 35.8195 -0.496113 33.4559 0.482864C32.5173 0.87173 31.4835 0.87173 30.5446 0.482864C28.181 -0.495863 25.4844 0.0403744 23.6748 1.84946C22.9564 2.56782 22.0012 2.96343 20.9851 2.96356C18.4265 2.96381 16.1406 4.49139 15.1612 6.85496C14.7724 7.79357 14.0412 8.52467 13.1026 8.91366C10.7389 9.89289 9.21148 12.179 9.21123 14.7375C9.21111 15.7535 8.81549 16.7087 8.09713 17.4272C6.28818 19.2365 5.75182 21.9331 6.73067 24.2969C7.11941 25.2355 7.11941 26.2695 6.73067 27.2082C5.75182 29.5721 6.28818 32.2686 8.09713 34.0778C8.81549 34.7963 9.21111 35.7517 9.21123 36.7676C9.21136 38.3391 9.78847 39.8072 10.7808 40.9334L3.1645 54.1252C2.91176 54.5631 2.94763 55.1101 3.25537 55.5112C3.56312 55.9121 4.08198 56.0882 4.57059 55.9576L14.2911 53.3529L16.8957 63.0735C17.0266 63.5619 17.4387 63.9234 17.9399 63.9892C17.9947 63.9965 18.0493 64 18.1034 64C18.5456 64 18.9604 63.765 19.1855 63.375L26.2125 51.204C26.8302 51.4019 27.4753 51.5047 28.1262 51.5047C28.9391 51.5047 29.7603 51.3467 30.5446 51.0219C31.4835 50.6334 32.5174 50.6333 33.4559 51.0219C34.8683 51.6068 36.3991 51.6504 37.7888 51.2052L44.815 63.375C45.0403 63.765 45.455 64 45.8971 64C45.9514 64 46.006 63.9965 46.0606 63.9892C46.5619 63.9234 46.974 63.5619 47.1048 63.0735L49.7094 53.3529L59.4299 55.9576C59.9183 56.0883 60.4373 55.9123 60.7452 55.5112C61.0529 55.1101 61.0888 54.5631 60.836 54.1252ZM18.5294 59.5116L16.3823 51.4987C16.2964 51.1783 16.0871 50.9054 15.8 50.7397C15.513 50.5739 15.172 50.5288 14.8515 50.6148L6.83841 52.7619L12.7912 42.4514C12.8935 42.5004 12.9969 42.5476 13.1026 42.5915C14.0412 42.9804 14.7724 43.7116 15.1613 44.6501C16.1406 47.0138 18.4266 48.5412 20.9852 48.5416C22.0012 48.5417 22.9564 48.9374 23.6749 49.6556C23.7898 49.7705 23.9093 49.8785 24.0309 49.9829L18.5294 59.5116ZM34.4123 48.7122C32.8571 48.0684 31.1438 48.0682 29.5881 48.7122C28.1617 49.303 26.5343 48.9793 25.4424 47.8876C24.2519 46.6973 22.6689 46.0415 20.9853 46.0414C19.4412 46.0412 18.0617 45.1194 17.4707 43.693C16.8262 42.1378 15.6147 40.9263 14.0595 40.2818C12.633 39.6907 11.7112 38.3111 11.7111 36.7673C11.7109 35.0837 11.0552 33.5008 9.86484 32.3102C8.77324 31.2184 8.4495 29.5911 9.04024 28.1645C9.68435 26.609 9.68435 24.8957 9.04024 23.3403C8.4495 21.9137 8.77324 20.2864 9.86484 19.1945C11.0552 18.004 11.7109 16.4211 11.7111 14.7375C11.7112 13.1934 12.633 11.8138 14.0595 11.2229C15.6147 10.5784 16.8262 9.36691 17.4707 7.81157C18.0617 6.3851 19.4412 5.46337 20.9853 5.46312C22.6689 5.463 24.2518 4.80726 25.4424 3.61692C26.172 2.88743 27.1404 2.50094 28.1287 2.50094C28.6193 2.50094 29.1148 2.59631 29.5881 2.79231C31.1436 3.43642 32.8568 3.43642 34.4124 2.79231C35.839 2.20157 37.4663 2.52532 38.5582 3.61692C39.7486 4.80726 41.3316 5.463 43.0152 5.46312C44.5593 5.46325 45.9389 6.3851 46.5299 7.81157C47.1743 9.36678 48.3858 10.5783 49.9412 11.2227C51.3676 11.8137 52.2894 13.1933 52.2896 14.7374C52.2897 16.421 52.9455 18.0038 54.1358 19.1944C55.2274 20.2863 55.5511 21.9136 54.9604 23.3402C54.3163 24.8957 54.3163 26.6089 54.9604 28.1645C55.5511 29.5909 55.2274 31.2183 54.1358 32.3101C52.9455 33.5007 52.2897 35.0836 52.2896 36.7671C52.2895 38.3111 51.3676 39.6907 49.9412 40.2817C48.3859 40.9262 47.1745 42.1376 46.53 43.6928C45.939 45.1193 44.5594 46.041 43.0153 46.0413C41.3317 46.0414 39.7489 46.697 38.5583 47.8875C37.4661 48.9794 35.839 49.303 34.4123 48.7122ZM49.1491 50.6147C48.8287 50.5287 48.4876 50.5737 48.2006 50.7396C47.9135 50.9053 47.704 51.1783 47.6182 51.4985L45.4711 59.5115L39.9705 49.9843C40.0923 49.8798 40.2108 49.7701 40.3258 49.6553C41.0441 48.9371 41.9993 48.5415 43.0154 48.5414C45.574 48.541 47.86 47.0135 48.8393 44.65C49.2282 43.7113 49.9593 42.9802 50.898 42.5913C51.0038 42.5474 51.1073 42.5001 51.2095 42.4511L57.1622 52.7616L49.1491 50.6147ZM49.718 25.7524C49.718 18.2827 44.9941 11.576 37.9634 9.06351C37.313 8.83114 36.5979 9.17001 36.3656 9.81999C36.1334 10.4701 36.472 11.1855 37.1221 11.4177C43.1609 13.5755 47.218 19.3363 47.218 25.7524C47.218 29.2852 46.0078 32.5405 43.9805 35.1259C43.5224 31.7889 40.6542 29.2094 37.1932 29.2094H36.7124C37.3327 28.2976 37.696 27.1973 37.696 26.0137V24.3932C37.696 21.2526 35.1409 18.6975 32.0004 18.6975C28.8598 18.6975 26.3048 21.2526 26.3048 24.3932V26.0136C26.3048 27.1972 26.668 28.2974 27.2884 29.2093H26.8075C23.3466 29.2093 20.4784 31.7889 20.0203 35.1258C17.9929 32.5403 16.7827 29.285 16.7827 25.7522C16.7827 19.336 20.84 13.5754 26.8787 11.4175C27.5288 11.1852 27.8675 10.4699 27.6352 9.81974C27.4029 9.16963 26.6876 8.83114 26.0375 9.06326C19.0067 11.5757 14.2828 18.2824 14.2828 25.7522C14.2828 35.5218 22.2308 43.47 32.0005 43.47C41.7701 43.47 49.718 35.5219 49.718 25.7524ZM28.8046 26.0137V24.3932C28.8046 22.6311 30.2382 21.1975 32.0002 21.1975C33.7623 21.1975 35.1959 22.6311 35.1959 24.3932V26.0136C35.1959 27.7757 33.7623 29.2093 32.0002 29.2093C30.2382 29.2094 28.8046 27.7758 28.8046 26.0137ZM22.4543 37.5943V36.0621C22.4543 33.6619 24.407 31.7092 26.8072 31.7092H37.1931C39.5933 31.7092 41.546 33.6619 41.546 36.0621V37.5943C38.9335 39.7044 35.6122 40.9701 32.0001 40.9701C28.3881 40.9701 25.0669 39.7044 22.4543 37.5943ZM32.8837 10.1683C32.6512 10.4008 32.3287 10.5346 32 10.5346C31.6712 10.5346 31.3487 10.4008 31.1162 10.1683C30.8837 9.93581 30.75 9.61331 30.75 9.28456C30.75 8.95581 30.8837 8.63331 31.1162 8.40081C31.3487 8.16831 31.6712 8.03456 32 8.03456C32.3287 8.03456 32.6512 8.16831 32.8837 8.40081C33.1162 8.63331 33.25 8.95581 33.25 9.28456C33.25 9.61331 33.1162 9.93581 32.8837 10.1683Z" fill="url(#paint0_linear)"/>
</g>
<defs>
<linearGradient id="paint0_linear" x1="60.7835" y1="1.60194e-06" x2="-2.88417" y2="57.4864" gradientUnits="userSpaceOnUse">
<stop stop-color="#319F2D"/>
<stop offset="1" stop-color="#FBFD2C"/>
<stop offset="1" stop-color="#CFE932"/>
</linearGradient>
<clipPath id="clip0">
<rect width="64" height="64" fill="white"/>
</clipPath>
</defs>
</svg>
