<svg width="64" height="64" viewBox="0 0 64 64" fill="none" xmlns="http://www.w3.org/2000/svg">
<path d="M60.4 12.2667H41.6V8.80003C41.5988 7.18043 40.2863 5.8679 38.6667 5.8667H25.3333C23.7137 5.8679 22.4012 7.18043 22.4 8.80003V12.2667H3.6C1.6128 12.2691 0.0024 13.8795 0 15.8667V54.5334C0.0024 56.5206 1.6128 58.131 3.6 58.1334H60.4C62.3872 58.131 63.9976 56.5206 64 54.5334V15.8667C63.9976 13.8795 62.3872 12.2691 60.4 12.2667ZM24.5333 8.80003C24.5339 8.35843 24.8917 8.00057 25.3333 8.00003H38.6667C39.1083 8.00057 39.4661 8.35843 39.4667 8.80003V12.2667H24.5333V8.80003ZM61.8667 54.5334C61.8655 55.3428 61.2095 55.9988 60.4 56H3.6C2.79053 55.9988 2.13453 55.3428 2.13333 54.5334V30.0886C5.29173 31.6374 13.1264 34.5216 27.7333 34.6582V37.8667C27.7333 38.4558 28.2109 38.9334 28.8 38.9334H35.2C35.7891 38.9334 36.2667 38.4558 36.2667 37.8667V34.6582C50.8736 34.5216 58.7083 31.6374 61.8667 30.0886V54.5334ZM29.8667 36.8V29.3334H34.1333V36.8H29.8667ZM61.8667 27.6694C60.0427 28.7062 52.4597 32.3627 36.2667 32.5248V28.2667C36.2667 27.6776 35.7891 27.2 35.2 27.2H28.8C28.2109 27.2 27.7333 27.6776 27.7333 28.2667V32.5248C11.5424 32.368 3.9584 28.7083 2.13333 27.6694V15.8667C2.13453 15.0572 2.79053 14.4012 3.6 14.4H60.4C61.2095 14.4012 61.8655 15.0572 61.8667 15.8667V27.6694Z" fill="url(#paint0_linear)"/>
<defs>
<linearGradient id="paint0_linear" x1="63.7573" y1="5.8667" x2="12.506" y2="68.3855" gradientUnits="userSpaceOnUse">
<stop stop-color="#319F2D"/>
<stop offset="1" stop-color="#FBFD2C"/>
<stop offset="1" stop-color="#CFE932"/>
</linearGradient>
</defs>
</svg>
