<svg width="64" height="64" viewBox="0 0 64 64" fill="none" xmlns="http://www.w3.org/2000/svg">
<path fill-rule="evenodd" clip-rule="evenodd" d="M9 6.375C11.757 6.375 14 8.618 14 11.375C14 14.132 11.757 16.375 9 16.375C6.243 16.375 4 14.132 4 11.375C4 8.618 6.243 6.375 9 6.375ZM24.375 16.375C21.1362 16.375 18.2897 18.1174 16.734 20.6945C15.0524 17.9738 12.0373 16.375 9 16.375C4.2765 16.375 0 20.1895 0 25.125V37.625C0 38.3153 0.559625 38.875 1.25 38.875H4V56.375C4 57.0653 4.55963 57.625 5.25 57.625H12.75C13.4404 57.625 14 57.0653 14 56.375V38.875H19.375V56.375C19.375 57.0653 19.9346 57.625 20.625 57.625H28.125C28.8154 57.625 29.375 57.0653 29.375 56.375V38.875H34.625V56.375C34.625 57.0653 35.1846 57.625 35.875 57.625H43.375C44.0654 57.625 44.625 57.0653 44.625 56.375V38.875H50V56.375C50 57.0653 50.5596 57.625 51.25 57.625H58.75C59.4404 57.625 60 57.0653 60 56.375V53.25C60 52.5597 59.4404 52 58.75 52C58.0596 52 57.5 52.5597 57.5 53.25V55.125H52.5V37.625C52.5 36.9347 51.9404 36.375 51.25 36.375H48.5V25.125C48.5 21.7371 51.4766 18.875 55 18.875C58.5234 18.875 61.5 21.7371 61.5 25.125V36.375H58.75C58.0596 36.375 57.5 36.9347 57.5 37.625V42C57.5 42.6903 58.0596 43.25 58.75 43.25C59.4404 43.25 60 42.6903 60 42V38.875H62.75C63.4404 38.875 64 38.3153 64 37.625V25.125C64 20.1899 59.724 16.375 55 16.375C57.757 16.375 60 14.132 60 11.375C60 8.618 57.757 6.375 55 6.375C52.243 6.375 50 8.618 50 11.375C50 14.132 52.243 16.375 55 16.375C51.9631 16.375 48.9479 17.9734 47.266 20.6945C45.7108 18.1181 42.8672 16.375 39.625 16.375C42.382 16.375 44.625 14.132 44.625 11.375C44.625 8.618 42.382 6.375 39.625 6.375C36.868 6.375 34.625 8.618 34.625 11.375C34.625 14.132 36.868 16.375 39.625 16.375C36.3644 16.375 33.5412 18.135 32 20.667C30.462 18.1402 27.6429 16.375 24.375 16.375ZM24.375 16.375C27.132 16.375 29.375 14.132 29.375 11.375C29.375 8.618 27.132 6.375 24.375 6.375C21.618 6.375 19.375 8.618 19.375 11.375C19.375 14.132 21.618 16.375 24.375 16.375ZM6.5 11.375C6.5 12.7535 7.6215 13.875 9 13.875C10.3785 13.875 11.5 12.7535 11.5 11.375C11.5 9.9965 10.3785 8.875 9 8.875C7.6215 8.875 6.5 9.9965 6.5 11.375ZM21.875 11.375C21.875 12.7535 22.9965 13.875 24.375 13.875C25.7535 13.875 26.875 12.7535 26.875 11.375C26.875 9.9965 25.7535 8.875 24.375 8.875C22.9965 8.875 21.875 9.9965 21.875 11.375ZM39.625 13.875C38.2465 13.875 37.125 12.7535 37.125 11.375C37.125 9.9965 38.2465 8.875 39.625 8.875C41.0035 8.875 42.125 9.9965 42.125 11.375C42.125 12.7535 41.0035 13.875 39.625 13.875ZM52.5 11.375C52.5 12.7535 53.6215 13.875 55 13.875C56.3785 13.875 57.5 12.7535 57.5 11.375C57.5 9.9965 56.3785 8.875 55 8.875C53.6215 8.875 52.5 9.9965 52.5 11.375ZM58.75 48.875C59.4404 48.875 60 48.3154 60 47.625C60 46.9346 59.4404 46.375 58.75 46.375C58.0596 46.375 57.5 46.9346 57.5 47.625C57.5 48.3154 58.0596 48.875 58.75 48.875ZM11.5 37.625C11.5 36.9347 12.0596 36.375 12.75 36.375H15.5V25.125C15.5 21.7371 12.5234 18.875 9 18.875C5.47662 18.875 2.5 21.7371 2.5 25.125V36.375H5.25C5.94037 36.375 6.5 36.9347 6.5 37.625V55.125H11.5V37.625ZM26.875 37.625C26.875 36.9347 27.4346 36.375 28.125 36.375H30.75V25.125C30.75 21.6788 27.8902 18.875 24.375 18.875C20.8598 18.875 18 21.6788 18 25.125V36.375H20.625C21.3154 36.375 21.875 36.9347 21.875 37.625V55.125H26.875V37.625ZM42.125 37.625C42.125 36.9347 42.6846 36.375 43.375 36.375H46V25.125C46 21.6788 43.1403 18.875 39.625 18.875C36.1097 18.875 33.25 21.6788 33.25 25.125V36.375H35.875C36.5654 36.375 37.125 36.9347 37.125 37.625V55.125H42.125V37.625Z" fill="url(#paint0_linear)"/>
<defs>
<linearGradient id="paint0_linear" x1="63.7573" y1="6.375" x2="13.7054" y2="68.6418" gradientUnits="userSpaceOnUse">
<stop stop-color="#319F2D"/>
<stop offset="1" stop-color="#FBFD2C"/>
<stop offset="1" stop-color="#CFE932"/>
</linearGradient>
</defs>
</svg>
