<svg width="56" height="56" viewBox="0 0 56 56" fill="none" xmlns="http://www.w3.org/2000/svg">
<g clip-path="url(#clip0)">
<path fill-rule="evenodd" clip-rule="evenodd" d="M18.1986 15.8888L22.5725 12.146C23.4579 16.9125 27.6478 20.5334 32.6668 20.5334C34.6405 20.5334 36.486 19.9734 38.0528 19.004L42.2418 24.5894C37.8147 25.7292 34.5334 29.7557 34.5334 34.5334C34.5334 35.6951 34.7274 36.8124 35.0847 37.8545L31.3294 40.6707C29.5617 37.5655 26.2212 35.4668 22.4001 35.4668C17.054 35.4668 12.6486 39.575 12.1754 44.8001H7.34857C6.93324 43.1914 5.47013 42 3.7333 42C1.67442 42 0 43.6744 0 45.7333C0 47.7922 1.67442 49.4666 3.7333 49.4666C5.47008 49.4666 6.93317 48.2752 7.34854 46.6667H12.1754C12.6485 51.8918 17.0539 56.0001 22.4001 56.0001C27.272 56.0001 31.3626 52.5883 32.4081 48.0287L38.499 50.9693C38.3488 51.3735 38.2667 51.8106 38.2667 52.2665C38.2667 54.3254 39.941 56 42 56C44.059 56 45.7333 54.3255 45.7333 52.2667C45.7333 50.2078 44.059 48.5332 42 48.5332C41.0799 48.5332 40.2367 48.8676 39.5853 49.4212L32.661 46.0783C32.6648 45.9638 32.6668 45.8488 32.6668 45.7334C32.6668 44.572 32.4729 43.4551 32.1158 42.4132L35.8713 39.5969C37.639 42.7017 40.9793 44.8001 44.8002 44.8001C50.4609 44.8001 55.0669 40.1941 55.0669 34.5334C55.0669 28.8727 50.4609 24.2667 44.8002 24.2667C44.646 24.2667 44.4926 24.2701 44.3401 24.2769L39.5444 17.8827C41.4982 16.1166 42.7717 13.6114 42.9191 10.8129L48.7659 13.6356C48.6156 14.04 48.5334 14.4772 48.5334 14.9332C48.5334 16.9921 50.2079 18.6665 52.2667 18.6665C54.3256 18.6665 56 16.9922 56 14.9332C56 12.8744 54.3256 11.1999 52.2667 11.1999C51.3468 11.1999 50.5037 11.5342 49.8523 12.0876L42.8124 8.68885C42.0509 3.7744 37.791 0 32.6668 0C27.1525 0 22.639 4.37086 22.4093 9.82973L16.8847 14.5571C15.3197 13.2343 13.3549 12.3705 11.2002 12.1753V7.34851C12.8088 6.93309 14 5.46996 14 3.7333C14.0001 1.67442 12.3257 0 10.2669 0C8.20787 0 6.53345 1.67442 6.53345 3.7333C6.53345 5.47017 7.72495 6.93331 9.33362 7.3486V12.1753C4.10843 12.6483 0 17.0537 0 22.4C0 28.0607 4.606 32.6666 10.2667 32.6666C15.3171 32.6666 19.528 29.0003 20.3772 24.1896L24.5705 27.4578C24.3751 27.9106 24.2667 28.4095 24.2667 28.9332C24.2667 30.9922 25.9411 32.6665 28 32.6665C30.059 32.6665 31.7333 30.9921 31.7333 28.9332C31.7333 26.8744 30.059 25.1999 28 25.1999C27.14 25.1999 26.347 25.4921 25.7152 25.9824L20.523 21.9356C20.4206 19.6466 19.5649 17.5502 18.1986 15.8888ZM5.59997 45.7229L5.59991 45.7334L5.59997 45.7438C5.59433 46.7685 4.75936 47.6 3.7333 47.6C2.70386 47.6 1.86659 46.7628 1.86659 45.7333C1.86659 44.7038 2.70375 43.8666 3.7333 43.8666C4.75927 43.8666 5.59437 44.6981 5.59997 45.7229ZM24.2669 10.2226C24.2682 10.2513 24.2682 10.28 24.2669 10.3086C24.279 12.7745 25.3588 14.9925 27.0669 16.5229V15.8807C27.0669 14.3295 28.3643 13.0667 29.9593 13.0667H35.3745C36.9695 13.0667 38.2669 14.3294 38.2669 15.8817V16.5227C39.9845 14.9837 41.0668 12.7493 41.0668 10.2667C41.0668 5.63456 37.2989 1.8667 32.6668 1.8667C28.0494 1.8667 24.2907 5.61065 24.2669 10.2226ZM52.2667 16.7999C51.2373 16.7999 50.4 15.9628 50.4 14.9332C50.4 13.9038 51.2372 13.0665 52.2667 13.0665C53.2963 13.0665 54.1334 13.9037 54.1334 14.9332C54.1333 15.9628 53.2962 16.7999 52.2667 16.7999ZM42 54.1333C40.9706 54.1333 40.1333 53.2961 40.1333 52.2665C40.1333 51.237 40.9706 50.3999 42 50.3999C43.0295 50.3999 43.8667 51.2371 43.8667 52.2667C43.8667 53.2962 43.0295 54.1333 42 54.1333ZM10.2667 14C14.891 14 18.6539 17.755 18.6667 22.3763C18.6663 22.3919 18.6663 22.4075 18.6667 22.423C18.66 24.8964 17.5791 27.1217 15.8668 28.656V28.0149C15.8668 26.4628 14.5694 25.1999 12.9744 25.1999H7.55923C5.96422 25.1999 4.66681 26.4628 4.66681 28.0139V28.6562C2.94909 27.1171 1.8667 24.8827 1.8667 22.4C1.8667 17.7678 5.63456 14 10.2667 14ZM26.5184 27.7987C26.277 28.1133 26.1333 28.5068 26.1333 28.9332C26.1333 29.9628 26.9706 30.7999 28 30.7999C29.0295 30.7999 29.8667 29.9628 29.8667 28.9332C29.8667 27.9037 29.0295 27.0665 28 27.0665C27.4026 27.0665 26.8699 27.3485 26.528 27.7863L26.5215 27.7948L26.5184 27.7987ZM50.4003 40.1483V40.7893C52.1179 39.2503 53.2001 37.0159 53.2001 34.5333C53.2001 29.9012 49.4323 26.1333 44.8002 26.1333C40.168 26.1333 36.4002 29.9012 36.4002 34.5333C36.4002 37.016 37.4825 39.2505 39.2003 40.7895V40.1473C39.2003 38.5961 40.4977 37.3333 42.0927 37.3333H47.5078C49.103 37.3333 50.4003 38.5961 50.4003 40.1483ZM41.0669 31.7333C41.0669 29.6744 42.7412 28 44.8002 28C46.8592 28 48.5335 29.6744 48.5335 31.7333C48.5335 33.7922 46.8592 35.4666 44.8002 35.4666C42.7413 35.4666 41.0669 33.7923 41.0669 31.7333ZM42.9335 31.7333C42.9335 32.7628 43.7708 33.6 44.8002 33.6C45.8296 33.6 46.6669 32.7628 46.6669 31.7333C46.6669 30.7037 45.8296 29.8666 44.8002 29.8666C43.7706 29.8666 42.9335 30.7039 42.9335 31.7333ZM48.5336 42.0513C46.2105 43.2086 43.39 43.2086 41.0669 42.0513V40.1483C41.0669 39.6256 41.527 39.2 42.0926 39.2H47.5077C48.0733 39.2 48.5334 39.6256 48.5334 40.1483V42.0513H48.5336ZM27.9997 51.9898V51.3482C27.9997 49.7961 26.7024 48.5332 25.1073 48.5332H19.6922C18.0971 48.5332 16.7997 49.7961 16.7997 51.3472V51.9892C15.0823 50.4501 14.0001 48.2159 14.0001 45.7334C14.0001 41.1012 17.7679 37.3334 22.4001 37.3334C27.0322 37.3334 30.8001 41.1012 30.8001 45.7334C30.8001 48.2162 29.7176 50.4507 27.9997 51.9898ZM22.4001 39.1999C20.3411 39.1999 18.6668 40.8744 18.6668 42.9332C18.6668 44.9922 20.3412 46.6665 22.4001 46.6665C24.459 46.6665 26.1334 44.9921 26.1334 42.9332C26.1334 40.8744 24.4591 39.1999 22.4001 39.1999ZM22.4001 44.7999C21.3707 44.7999 20.5334 43.9628 20.5334 42.9332C20.5334 41.9038 21.3706 41.0665 22.4001 41.0665C23.4295 41.0665 24.2668 41.9037 24.2668 42.9332C24.2668 43.9628 23.4295 44.7999 22.4001 44.7999ZM18.6663 53.2512C20.9895 54.4086 23.8099 54.4086 26.133 53.2512H26.1329V51.3482C26.1329 50.8255 25.6728 50.3999 25.1072 50.3999H19.6921C19.1265 50.3999 18.6663 50.8255 18.6663 51.3482V53.2512ZM6.53345 19.6C6.53345 17.5412 8.20776 15.8667 10.2667 15.8667C12.3256 15.8667 14 17.5412 14 19.6C14 21.6589 12.3257 23.3333 10.2667 23.3333C8.20787 23.3333 6.53345 21.6589 6.53345 19.6ZM8.40004 19.6C8.40004 20.6296 9.23731 21.4667 10.2667 21.4667C11.2962 21.4667 12.1334 20.6296 12.1334 19.6C12.1334 18.5705 11.2962 17.7333 10.2667 17.7333C9.2372 17.7333 8.40004 18.5705 8.40004 19.6ZM14.0001 29.9179C11.6771 31.0752 8.85653 31.0752 6.5334 29.9179V28.0149C6.5334 27.4922 6.99355 27.0666 7.55912 27.0666H12.9743C13.5399 27.0666 14 27.4922 14 28.0149V29.9179H14.0001ZM32.6664 3.73328C30.6074 3.73328 28.9331 5.4077 28.9331 7.46657C28.9331 9.52545 30.6075 11.1999 32.6664 11.1999C34.7253 11.1999 36.3997 9.52556 36.3997 7.46668C36.3997 5.40781 34.7253 3.73328 32.6664 3.73328ZM32.6664 9.33328C31.637 9.33328 30.7997 8.49612 30.7997 7.46657C30.7997 6.43714 31.6369 5.59987 32.6664 5.59987C33.6959 5.59987 34.5331 6.43703 34.5331 7.46657C34.533 8.49612 33.6958 9.33328 32.6664 9.33328ZM28.9335 17.7847C31.2566 18.942 34.0772 18.942 36.4002 17.7847H36.4001V15.8817C36.4001 15.359 35.9399 14.9334 35.3744 14.9334H29.9592C29.3936 14.9334 28.9335 15.359 28.9335 15.8817V17.7847ZM10.2669 5.6C9.23742 5.6 8.40015 4.76284 8.40015 3.7333C8.40015 2.70386 9.23731 1.86659 10.2669 1.86659C11.2963 1.86659 12.1336 2.70375 12.1336 3.7333C12.1334 4.76284 11.2963 5.6 10.2669 5.6Z" fill="url(#paint0_linear)"/>
</g>
<defs>
<linearGradient id="paint0_linear" x1="56" y1="0" x2="-5.72204e-06" y2="56" gradientUnits="userSpaceOnUse">
<stop stop-color="#F66C12"/>
<stop offset="1" stop-color="#FBFD2C"/>
</linearGradient>
<clipPath id="clip0">
<rect width="56" height="56" fill="white"/>
</clipPath>
</defs>
</svg>
